<?xml version="1.0" standalone="no"?>
<!DOCTYPE svg PUBLIC "-//W3C//DTD SVG 20010904//EN"
 "http://www.w3.org/TR/2001/REC-SVG-20010904/DTD/svg10.dtd">
<svg version="1.0" xmlns="http://www.w3.org/2000/svg"
 width="1088.000000pt" height="1088.000000pt" viewBox="0 0 1088.000000 1088.000000"
 preserveAspectRatio="xMidYMid meet">
<metadata>
Created by potrace 1.11, written by Peter Selinger 2001-2013
</metadata>
<g transform="translate(0.000000,1088.000000) scale(0.100000,-0.100000)"
fill="#000000" stroke="none">
<path d="M5275 10864 c-44 -23 -63 -43 -75 -79 -7 -21 -11 -255 -13 -676 l-2
-644 -65 -12 c-36 -7 -81 -15 -100 -18 -20 -3 -45 -7 -55 -10 -11 -3 -51 -12
-90 -21 -38 -8 -77 -17 -85 -19 -179 -41 -652 -209 -672 -239 -4 -6 -8 -8 -8
-3 0 4 -28 -7 -62 -25 -35 -18 -65 -32 -68 -33 -3 0 -30 -15 -61 -33 -31 -17
-62 -32 -68 -32 -6 0 -11 -4 -11 -10 0 -5 -5 -10 -10 -10 -6 0 -36 -16 -66
-35 -30 -19 -56 -35 -59 -35 -6 0 -165 -110 -181 -125 -6 -5 -22 -17 -34 -25
-104 -69 -431 -377 -510 -479 -14 -18 -34 -43 -45 -55 -11 -13 -29 -36 -40
-51 -11 -16 -25 -33 -30 -39 -23 -24 -85 -117 -85 -126 0 -6 -3 -10 -7 -10
-11 0 -132 -192 -173 -275 -14 -27 -27 -52 -30 -55 -10 -10 -116 -236 -149
-320 -12 -30 -26 -64 -31 -75 -5 -11 -23 -63 -40 -115 -18 -52 -35 -102 -38
-110 -3 -8 -6 -19 -7 -25 -2 -5 -10 -35 -20 -65 -23 -76 -34 -116 -50 -190 -2
-8 -4 -15 -5 -15 -1 0 -4 -11 -6 -24 -2 -14 -11 -50 -18 -80 -8 -31 -17 -72
-20 -91 -3 -19 -8 -45 -10 -56 -2 -12 -7 -37 -10 -55 -3 -19 -8 -45 -11 -59
-3 -14 -7 -45 -10 -70 -3 -25 -7 -56 -10 -70 -3 -14 -7 -47 -10 -75 -3 -27 -7
-65 -10 -85 -5 -35 -9 -81 -22 -245 -3 -49 -7 -234 -7 -410 -1 -276 2 -371 19
-585 4 -53 16 -161 22 -195 3 -16 6 -43 8 -60 4 -53 15 -117 40 -250 9 -49 19
-101 22 -115 2 -14 15 -70 29 -125 14 -55 28 -111 30 -125 3 -14 11 -44 19
-67 8 -23 16 -52 19 -65 2 -13 9 -36 16 -53 6 -16 13 -37 15 -45 10 -49 113
-307 156 -393 10 -21 19 -43 19 -50 0 -7 5 -18 12 -25 6 -6 13 -17 14 -24 1
-7 23 -50 48 -96 25 -45 46 -86 46 -91 0 -5 6 -16 13 -23 7 -7 27 -35 43 -63
50 -85 102 -166 113 -175 3 -3 19 -25 35 -50 16 -25 42 -58 58 -75 15 -16 28
-36 28 -42 0 -7 4 -13 8 -13 4 0 26 -24 47 -52 50 -66 288 -307 375 -379 36
-30 67 -56 70 -59 6 -6 103 -79 170 -127 25 -18 52 -36 60 -40 8 -4 20 -11 25
-15 23 -20 115 -76 115 -71 0 3 7 0 15 -7 27 -23 168 -100 182 -100 7 0 13 -5
13 -12 0 -6 3 -9 6 -5 3 3 24 -5 45 -19 21 -13 39 -22 39 -19 0 3 21 -6 48
-19 76 -39 377 -153 452 -171 8 -2 43 -13 78 -24 34 -10 62 -17 62 -15 0 3 8
1 18 -5 15 -8 196 -51 277 -66 17 -2 59 -10 95 -17 36 -7 68 -11 72 -10 4 1 7
-294 7 -655 l-1 -656 29 -41 c43 -60 75 -68 280 -64 191 3 206 8 248 79 19 32
19 56 21 654 1 341 2 623 3 627 0 3 25 4 54 1 152 -15 390 -2 532 29 113 24
315 81 395 110 106 38 330 136 350 152 8 7 31 19 50 26 19 7 43 20 53 28 9 8
17 12 17 8 0 -4 6 -2 13 4 20 17 171 110 190 116 9 4 17 10 17 15 0 5 4 9 10
9 17 0 182 123 370 275 44 36 334 329 365 369 17 21 35 44 42 51 7 7 51 66 98
131 47 66 90 124 95 131 6 7 10 14 10 17 0 2 17 33 39 67 41 69 124 230 164
320 45 100 119 335 133 419 2 14 6 34 9 46 5 21 10 54 20 124 3 19 7 93 10
163 4 105 2 134 -11 160 -37 71 -110 110 -201 108 -81 -2 -158 -79 -178 -180
-12 -54 -16 -69 -50 -181 -20 -63 -37 -122 -39 -130 -6 -24 -57 -162 -71 -195
-42 -96 -55 -129 -55 -141 0 -8 -4 -14 -10 -14 -5 0 -10 -6 -10 -13 0 -15
-118 -251 -151 -302 -10 -16 -22 -37 -25 -45 -16 -35 -177 -273 -235 -346 -87
-109 -98 -122 -234 -259 -180 -182 -340 -309 -496 -394 -24 -13 -46 -26 -49
-30 -10 -13 -220 -111 -237 -111 -7 0 -13 -5 -13 -12 0 -6 -3 -9 -6 -6 -3 3
-31 -5 -63 -17 -32 -13 -69 -26 -82 -28 -13 -2 -31 -7 -39 -10 -15 -6 -88 -26
-102 -27 -4 -1 -22 -6 -40 -11 -18 -5 -51 -12 -73 -15 -22 -3 -51 -8 -65 -10
-132 -21 -420 -24 -500 -5 -4 1 -6 7324 -1 7356 2 17 318 10 496 -11 66 -7
216 -35 275 -51 30 -8 64 -16 75 -19 32 -8 38 -10 68 -22 16 -7 32 -12 37 -12
48 0 459 -195 502 -238 7 -7 16 -12 20 -12 5 0 14 -4 21 -10 7 -5 50 -38 97
-72 47 -34 106 -80 131 -102 25 -23 54 -48 65 -57 29 -23 175 -179 209 -222
17 -21 36 -44 43 -52 22 -25 14 -34 -20 -24 -40 11 -221 14 -303 4 -172 -20
-370 -97 -504 -195 -82 -60 -214 -196 -264 -272 -81 -123 -169 -322 -184 -413
-2 -16 -8 -46 -13 -65 -41 -162 -28 -402 31 -590 25 -77 128 -290 140 -290 5
0 9 -5 9 -11 0 -18 92 -131 167 -205 120 -117 266 -205 428 -257 83 -27 103
-31 221 -48 84 -11 255 -6 338 11 304 60 562 264 725 573 22 42 39 77 36 77
-2 0 4 19 14 43 21 49 43 134 58 217 10 60 12 336 2 377 -5 21 -12 54 -15 73
-3 19 -17 80 -31 135 -14 55 -26 107 -28 115 -5 24 -66 201 -82 240 -8 19 -20
46 -25 60 -93 231 -240 478 -417 700 -75 94 -291 316 -367 377 -21 17 -50 40
-63 52 -13 12 -27 21 -30 21 -3 0 -17 10 -31 23 -28 25 -175 127 -184 127 -3
0 -24 13 -48 29 -41 28 -94 59 -134 78 -20 11 -53 27 -81 42 -72 38 -324 137
-367 145 -12 2 -32 9 -46 15 -22 10 -112 33 -180 47 -125 25 -233 44 -275 48
-27 2 -50 5 -50 6 0 4 -153 9 -297 10 -93 1 -169 5 -169 8 -1 4 -3 279 -4 612
-1 333 -5 621 -9 640 -10 45 -51 88 -95 100 -20 5 -108 10 -196 10 -126 0
-166 -3 -190 -16z m-86 -5425 l0 -3570 -22 7 c-70 21 -263 129 -304 170 -8 8
-18 14 -21 14 -9 0 -122 109 -168 161 -122 137 -262 417 -309 615 -3 10 -14
57 -26 104 -21 85 -23 95 -34 160 -3 19 -11 62 -16 95 -6 33 -13 76 -15 95 -2
19 -6 49 -9 66 -2 17 -7 55 -10 85 -18 169 -18 177 -31 424 -12 209 -12 2943
0 3145 4 85 9 175 11 200 3 54 14 179 22 235 2 22 6 60 8 85 2 25 4 45 5 45 2
0 7 26 15 85 4 30 8 62 10 70 12 59 16 79 21 110 3 19 9 49 14 65 5 17 11 41
14 55 9 56 56 206 82 267 8 17 14 34 14 37 0 10 82 180 100 206 9 14 30 45 46
70 16 25 31 47 34 50 3 3 17 21 32 41 38 51 166 176 200 197 15 9 28 20 28 24
0 4 7 8 15 8 8 0 15 3 15 8 0 13 242 141 267 142 9 0 12 -788 12 -3571z"/>
</g>
</svg>
